<svg width="20" height="20" viewBox="0 0 20 20" fill="none" xmlns="http://www.w3.org/2000/svg">
<path d="M16.875 5H4.375C4.20924 5 4.05027 4.93415 3.93306 4.81694C3.81585 4.69973 3.75 4.54076 3.75 4.375C3.75 4.20924 3.81585 4.05027 3.93306 3.93306C4.05027 3.81585 4.20924 3.75 4.375 3.75H15C15.1658 3.75 15.3247 3.68415 15.4419 3.56694C15.5592 3.44973 15.625 3.29076 15.625 3.125C15.625 2.95924 15.5592 2.80027 15.4419 2.68306C15.3247 2.56585 15.1658 2.5 15 2.5H4.375C3.87772 2.5 3.40081 2.69754 3.04917 3.04917C2.69754 3.40081 2.5 3.87772 2.5 4.375V14.375C2.5 14.8723 2.69754 15.3492 3.04917 15.7008C3.40081 16.0525 3.87772 16.25 4.375 16.25H16.875C17.2065 16.25 17.5245 16.1183 17.7589 15.8839C17.9933 15.6495 18.125 15.3315 18.125 15V6.25C18.125 5.91848 17.9933 5.60054 17.7589 5.36612C17.5245 5.1317 17.2065 5 16.875 5ZM16.875 15H4.375C4.20924 15 4.05027 14.9342 3.93306 14.8169C3.81585 14.6997 3.75 14.5408 3.75 14.375V6.14297C3.95068 6.21411 4.16208 6.25031 4.375 6.25H16.875V15ZM13.125 10.3125C13.125 10.1271 13.18 9.94582 13.283 9.79165C13.386 9.63748 13.5324 9.51732 13.7037 9.44636C13.875 9.37541 14.0635 9.35684 14.2454 9.39301C14.4273 9.42919 14.5943 9.51848 14.7254 9.64959C14.8565 9.7807 14.9458 9.94775 14.982 10.1296C15.0182 10.3115 14.9996 10.5 14.9286 10.6713C14.8577 10.8426 14.7375 10.989 14.5833 11.092C14.4292 11.195 14.2479 11.25 14.0625 11.25C13.8139 11.25 13.5754 11.1512 13.3996 10.9754C13.2238 10.7996 13.125 10.5611 13.125 10.3125Z" fill="#FFC445"/>
</svg>
