<svg width="16" height="14" viewBox="0 0 16 14" fill="none" xmlns="http://www.w3.org/2000/svg">
<path d="M14.375 2.5H1.875C1.70924 2.5 1.55027 2.43415 1.43306 2.31694C1.31585 2.19973 1.25 2.04076 1.25 1.875C1.25 1.70924 1.31585 1.55027 1.43306 1.43306C1.55027 1.31585 1.70924 1.25 1.875 1.25H12.5C12.6658 1.25 12.8247 1.18415 12.9419 1.06694C13.0592 0.949731 13.125 0.79076 13.125 0.625C13.125 0.45924 13.0592 0.300269 12.9419 0.183058C12.8247 0.0658481 12.6658 0 12.5 0H1.875C1.37772 0 0.900806 0.197544 0.549175 0.549175C0.197544 0.900806 0 1.37772 0 1.875V11.875C0 12.3723 0.197544 12.8492 0.549175 13.2008C0.900806 13.5525 1.37772 13.75 1.875 13.75H14.375C14.7065 13.75 15.0245 13.6183 15.2589 13.3839C15.4933 13.1495 15.625 12.8315 15.625 12.5V3.75C15.625 3.41848 15.4933 3.10054 15.2589 2.86612C15.0245 2.6317 14.7065 2.5 14.375 2.5ZM14.375 12.5H1.875C1.70924 12.5 1.55027 12.4342 1.43306 12.3169C1.31585 12.1997 1.25 12.0408 1.25 11.875V3.64297C1.45068 3.71411 1.66208 3.75031 1.875 3.75H14.375V12.5ZM10.625 7.8125C10.625 7.62708 10.68 7.44582 10.783 7.29165C10.886 7.13748 11.0324 7.01732 11.2037 6.94636C11.375 6.87541 11.5635 6.85684 11.7454 6.89301C11.9273 6.92919 12.0943 7.01848 12.2254 7.14959C12.3565 7.2807 12.4458 7.44775 12.482 7.6296C12.5182 7.81146 12.4996 7.99996 12.4286 8.17126C12.3577 8.34257 12.2375 8.48899 12.0833 8.592C11.9292 8.69502 11.7479 8.75 11.5625 8.75C11.3139 8.75 11.0754 8.65123 10.8996 8.47541C10.7238 8.2996 10.625 8.06114 10.625 7.8125Z" fill="#CDCDCD"/>
</svg>
